<svg xmlns="http://www.w3.org/2000/svg" width="1024" height="1024" viewBox="0 0 1024 1024"><defs><linearGradient id="g" x2="1" y2="1"><stop stop-color="#a6ffe0"/><stop offset=".55" stop-color="#7edee9"/><stop offset="1" stop-color="#a5a4fa"/></linearGradient></defs><rect x="52" y="52" width="920" height="920" rx="236" fill="url(#g)"/><path d="M658 718V439c0-122-74-195-194-195-78 0-144 22-202 66l66 91c40-30 78-44 121-44 61 0 91 31 91 83v14c-32-15-67-23-103-23-112 0-182 67-182 170 0 103 70 165 174 165 48 0 89-14 125-45l13 41h91zm-118-161v54c-22 37-53 55-93 55-44 0-70-25-70-66 0-43 26-68 76-68 32 0 61 9 87 25z" fill="#102139"/><circle cx="776" cy="257" r="39" fill="#fff" fill-opacity=".84"/></svg>
