<svg xmlns="http://www.w3.org/2000/svg" width="1440" height="580" viewBox="0 0 1440 580" role="img" aria-labelledby="title desc"><title id="title">Auralink: Your devices. One workspace.</title><desc id="desc">Peer-hosted calls, screen sharing and attended assistance for Windows, macOS and Android.</desc><defs><linearGradient id="bg" x2="1" y2="1"><stop stop-color="#080e20"/><stop offset=".55" stop-color="#152044"/><stop offset="1" stop-color="#291942"/></linearGradient><linearGradient id="accent"><stop stop-color="#71e7ef"/><stop offset=".5" stop-color="#9ba7ff"/><stop offset="1" stop-color="#de95ed"/></linearGradient><radialGradient id="glow"><stop stop-color="#7f6bff" stop-opacity=".35"/><stop offset="1" stop-color="#7f6bff" stop-opacity="0"/></radialGradient></defs><rect width="1440" height="580" rx="28" fill="url(#bg)"/><circle cx="1130" cy="260" r="390" fill="url(#glow)"/><g font-family="Segoe UI,Arial,sans-serif"><rect x="76" y="64" width="64" height="64" rx="21" fill="url(#accent)"/><path d="M92 108l16-30 16 30M98 98h20" fill="none" stroke="#10182c" stroke-width="5" stroke-linecap="round"/><text x="160" y="109" font-size="36" font-weight="700" fill="#f6f8ff">Auralink</text><text x="78" y="220" font-size="61" font-weight="700" fill="#f6f8ff">Your devices.</text><text x="78" y="296" font-size="61" font-weight="700" fill="url(#accent)">One workspace.</text><text x="80" y="357" font-size="23" fill="#b7c5e3">Calls. Presentations. Assistance with permission.</text><text x="80" y="422" font-size="19" fill="#c7d5f4">Windows   /   macOS   /   Android</text><text x="80" y="516" font-size="16" letter-spacing="2" fill="#90a4ca">OPEN SOURCE · PEER-HOSTED · ATTENDED BY DESIGN</text></g><g transform="translate(780 143)"><rect width="470" height="285" rx="22" fill="#0b142c" stroke="#6d8db9"/><rect x="15" y="15" width="440" height="227" rx="13" fill="#172745"/><rect x="34" y="35" width="190" height="185" rx="12" fill="#233252"/><circle cx="129" cy="102" r="30" fill="url(#accent)"/><path d="M79 190a50 50 0 0 1 100 0" fill="#566294"/><rect x="240" y="35" width="193" height="88" rx="12" fill="#263454"/><rect x="240" y="138" width="193" height="82" rx="12" fill="#273459"/><path d="M260 161h141M260 180h107M260 199h126" stroke="#869ed0" stroke-width="5" stroke-linecap="round"/><circle cx="196" cy="263" r="10" fill="#58d9d2"/><circle cx="234" cy="263" r="10" fill="#98a5fd"/><circle cx="272" cy="263" r="10" fill="#ed91ba"/><path d="M214 285v25h45v-25M176 316h120" stroke="#7c8fb7" stroke-width="6" stroke-linecap="round"/><g transform="translate(375 150)"><rect width="126" height="231" rx="24" fill="#10162f" stroke="#a4b2e6" stroke-width="3"/><rect x="9" y="13" width="108" height="204" rx="16" fill="#243453"/><rect x="42" y="18" width="44" height="6" rx="3" fill="#0e1730"/><circle cx="63" cy="92" r="23" fill="url(#accent)"/><path d="M34 161h58M34 177h43" stroke="#7f9acb" stroke-width="5" stroke-linecap="round"/><circle cx="63" cy="199" r="7" fill="#62e0d4"/></g></g></svg>
